<svg width="186" height="32" viewBox="0 0 186 32" fill="none" xmlns="http://www.w3.org/2000/svg">
<path d="M179.069 8.44482C181.161 8.44482 182.801 9.05959 183.987 10.2891C185.195 11.5186 185.799 13.2874 185.799 15.5955V25.464H184.181V15.7249C184.181 13.8267 183.717 12.3815 182.79 11.3892C181.862 10.397 180.568 9.90084 178.907 9.90084C177.009 9.90084 175.499 10.494 174.377 11.6804C173.277 12.8668 172.727 14.463 172.727 16.4691V25.464H171.109V15.7249C171.109 13.8267 170.646 12.3815 169.718 11.3892C168.79 10.397 167.496 9.90084 165.835 9.90084C163.937 9.90084 162.427 10.494 161.305 11.6804C160.205 12.8668 159.655 14.463 159.655 16.4691V25.464H158.038V8.57425H159.591V12.1981C160.151 11.0117 160.982 10.095 162.082 9.44786C163.204 8.77917 164.53 8.44482 166.062 8.44482C167.593 8.44482 168.888 8.78995 169.945 9.48021C171.023 10.1705 171.789 11.1843 172.242 12.5217C172.803 11.2706 173.676 10.2783 174.863 9.54492C176.071 8.81152 177.473 8.44482 179.069 8.44482Z" fill="#303D4A"/>
<path d="M145.544 25.5934C143.948 25.5934 142.503 25.2267 141.209 24.4933C139.936 23.7599 138.933 22.7461 138.2 21.4519C137.466 20.1361 137.099 18.6585 137.099 17.0191C137.099 15.3798 137.466 13.913 138.2 12.6187C138.933 11.3029 139.936 10.2783 141.209 9.54492C142.503 8.81152 143.948 8.44482 145.544 8.44482C147.141 8.44482 148.575 8.81152 149.848 9.54492C151.142 10.2783 152.156 11.3029 152.889 12.6187C153.623 13.913 153.989 15.3798 153.989 17.0191C153.989 18.6585 153.623 20.1361 152.889 21.4519C152.156 22.7461 151.142 23.7599 149.848 24.4933C148.575 25.2267 147.141 25.5934 145.544 25.5934ZM145.544 24.1374C146.839 24.1374 147.993 23.8354 149.006 23.2315C150.042 22.6275 150.851 21.7862 151.433 20.7077C152.037 19.6292 152.339 18.3997 152.339 17.0191C152.339 15.6386 152.037 14.4091 151.433 13.3306C150.851 12.252 150.042 11.4108 149.006 10.8068C147.993 10.2028 146.839 9.90084 145.544 9.90084C144.25 9.90084 143.085 10.2028 142.05 10.8068C141.036 11.4108 140.227 12.252 139.623 13.3306C139.041 14.4091 138.75 15.6386 138.75 17.0191C138.75 18.3997 139.041 19.6292 139.623 20.7077C140.227 21.7862 141.036 22.6275 142.05 23.2315C143.085 23.8354 144.25 24.1374 145.544 24.1374Z" fill="#303D4A"/>
<path d="M128.949 25.5934C127.31 25.5934 125.843 25.2267 124.549 24.4933C123.254 23.7599 122.241 22.7461 121.507 21.4519C120.774 20.1361 120.407 18.6585 120.407 17.0191C120.407 15.3582 120.774 13.8806 121.507 12.5864C122.241 11.2706 123.254 10.2568 124.549 9.54492C125.843 8.81152 127.31 8.44482 128.949 8.44482C130.308 8.44482 131.538 8.71446 132.638 9.25372C133.759 9.77142 134.665 10.5372 135.356 11.551L134.158 12.4246C133.554 11.5833 132.799 10.9578 131.893 10.548C131.009 10.1165 130.028 9.90084 128.949 9.90084C127.633 9.90084 126.447 10.2028 125.39 10.8068C124.355 11.3892 123.535 12.2197 122.931 13.2982C122.348 14.3767 122.057 15.617 122.057 17.0191C122.057 18.4212 122.348 19.6615 122.931 20.7401C123.535 21.8186 124.355 22.6598 125.39 23.2638C126.447 23.8462 127.633 24.1374 128.949 24.1374C130.028 24.1374 131.009 23.9325 131.893 23.5227C132.799 23.0913 133.554 22.4549 134.158 21.6137L135.356 22.4873C134.665 23.5011 133.759 24.2776 132.638 24.8169C131.538 25.3346 130.308 25.5934 128.949 25.5934Z" fill="#303D4A"/>
<path d="M117.088 25.5935C116.721 25.5935 116.397 25.464 116.117 25.2052C115.858 24.9248 115.729 24.5904 115.729 24.2021C115.729 23.8139 115.858 23.4903 116.117 23.2315C116.397 22.9726 116.721 22.8432 117.088 22.8432C117.454 22.8432 117.767 22.9726 118.026 23.2315C118.306 23.4903 118.447 23.8139 118.447 24.2021C118.447 24.5904 118.306 24.9248 118.026 25.2052C117.767 25.464 117.454 25.5935 117.088 25.5935Z" fill="#303D4A"/>
<path d="M108.039 10.3538C108.643 9.51253 109.452 8.8762 110.466 8.44479C111.501 8.01337 112.687 7.79767 114.025 7.79767V12.4569C113.464 12.4138 113.086 12.3922 112.892 12.3922C111.447 12.3922 110.315 12.802 109.495 13.6217C108.675 14.4198 108.265 15.6278 108.265 17.2456V25.464H103.218V8.05651H108.039V10.3538Z" fill="#303D4A"/>
<path d="M91.2697 25.7228C89.4362 25.7228 87.786 25.3453 86.3192 24.5904C84.874 23.8138 83.7415 22.7461 82.9218 21.3871C82.1022 20.0282 81.6923 18.4859 81.6923 16.7603C81.6923 15.0346 82.1022 13.4923 82.9218 12.1334C83.7415 10.7744 84.874 9.71745 86.3192 8.96248C87.786 8.18594 89.4362 7.79767 91.2697 7.79767C93.1032 7.79767 94.7425 8.18594 96.1878 8.96248C97.633 9.71745 98.7654 10.7744 99.5851 12.1334C100.405 13.4923 100.815 15.0346 100.815 16.7603C100.815 18.4859 100.405 20.0282 99.5851 21.3871C98.7654 22.7461 97.633 23.8138 96.1878 24.5904C94.7425 25.3453 93.1032 25.7228 91.2697 25.7228ZM91.2697 21.5813C92.5639 21.5813 93.6209 21.1499 94.4405 20.287C95.2818 19.4026 95.7024 18.2271 95.7024 16.7603C95.7024 15.2934 95.2818 14.1286 94.4405 13.2658C93.6209 12.3814 92.5639 11.9392 91.2697 11.9392C89.9754 11.9392 88.9077 12.3814 88.0664 13.2658C87.2252 14.1286 86.8046 15.2934 86.8046 16.7603C86.8046 18.2271 87.2252 19.4026 88.0664 20.287C88.9077 21.1499 89.9754 21.5813 91.2697 21.5813Z" fill="#303D4A"/>
<path d="M79.281 8.05664V22.5521C79.281 25.7445 78.4721 28.1173 76.8543 29.6704C75.2365 31.2235 72.8853 32 69.8008 32C68.1614 32 66.6083 31.7951 65.1415 31.3852C63.6963 30.9754 62.4775 30.3822 61.4853 29.6057L63.4914 25.9818C64.2248 26.5858 65.1199 27.0603 66.1769 27.4055C67.2339 27.7506 68.3016 27.9232 69.3801 27.9232C71.0626 27.9232 72.2922 27.5349 73.0687 26.7583C73.8452 25.9818 74.2335 24.7954 74.2335 23.1992V22.6168C73.5864 23.2639 72.8206 23.76 71.9362 24.1052C71.0518 24.4503 70.1027 24.6229 69.0889 24.6229C66.8024 24.6229 64.9905 23.9757 63.6531 22.6815C62.3158 21.3657 61.6471 19.4028 61.6471 16.7927V8.05664H66.6946V16.0485C66.6946 18.8743 67.8702 20.2872 70.2214 20.2872C71.4293 20.2872 72.4 19.8989 73.1334 19.1224C73.8668 18.3242 74.2335 17.1486 74.2335 15.5956V8.05664H79.281Z" fill="#303D4A"/>
<path d="M52.9828 8.05664H58.0303V25.4641H52.9828V8.05664Z" fill="#303D4A"/>
<path d="M53.2416 4.82103C53.824 5.36029 54.579 5.62993 55.5065 5.62993C56.434 5.62993 57.189 5.36029 57.7714 4.82103C58.3538 4.26019 58.645 3.55915 58.645 2.7179C58.645 1.94135 58.3538 1.29424 57.7714 0.776543C57.189 0.258848 56.434 0 55.5065 0C54.579 0 53.824 0.269633 53.2416 0.808899C52.6592 1.34816 52.368 2.01685 52.368 2.81496C52.368 3.61308 52.6592 4.28176 53.2416 4.82103Z" fill="#F3704B"/>
<path d="M49.2773 8.05664V22.5521C49.2773 25.7445 48.4684 28.1173 46.8506 29.6704C45.2328 31.2235 42.8816 32 39.797 32C38.1576 32 36.6045 31.7951 35.1377 31.3852C33.6925 30.9754 32.4738 30.3822 31.4815 29.6057L33.4876 25.9818C34.221 26.5858 35.1162 27.0603 36.1731 27.4055C37.2301 27.7506 38.2978 27.9232 39.3763 27.9232C41.0589 27.9232 42.2884 27.5349 43.0649 26.7583C43.8415 25.9818 44.2297 24.7954 44.2297 23.1992V22.6168C43.5826 23.2639 42.8169 23.76 41.9325 24.1052C41.0481 24.4503 40.099 24.6229 39.0851 24.6229C36.7987 24.6229 34.9867 23.9757 33.6494 22.6815C32.312 21.3657 31.6433 19.4028 31.6433 16.7927V8.05664H36.6908V16.0485C36.6908 18.8743 37.8664 20.2872 40.2176 20.2872C41.4256 20.2872 42.3962 19.8989 43.1296 19.1224C43.863 18.3242 44.2297 17.1486 44.2297 15.5956V8.05664H49.2773Z" fill="#303D4A"/>
<path d="M22.979 8.05664H28.0265V25.4641H22.979V8.05664Z" fill="#303D4A"/>
<path d="M23.2378 4.82103C23.8202 5.36029 24.5752 5.62993 25.5027 5.62993C26.4303 5.62993 27.1853 5.36029 27.7677 4.82103C28.3501 4.26019 28.6413 3.55915 28.6413 2.7179C28.6413 1.94135 28.3501 1.29424 27.7677 0.776543C27.1853 0.258848 26.4303 0 25.5027 0C24.5752 0 23.8202 0.269633 23.2378 0.808899C22.6554 1.34816 22.3642 2.01685 22.3642 2.81496C22.3642 3.61308 22.6554 4.28176 23.2378 4.82103Z" fill="#F3704B"/>
<path d="M19.2518 8.05651V22.552C19.2518 25.7444 18.4213 28.1172 16.7604 29.6703C15.0994 31.2233 12.6727 31.9999 9.48028 31.9999C7.79777 31.9999 6.20155 31.795 4.6916 31.3851C3.18166 30.9753 1.93057 30.3821 0.938321 29.6055L2.94439 25.9817C3.67779 26.5857 4.60532 27.0602 5.72699 27.4053C6.84866 27.772 7.97034 27.9554 9.09201 27.9554C10.8392 27.9554 12.1227 27.5563 12.9424 26.7582C13.7836 25.9817 14.2042 24.7953 14.2042 23.1991V22.4549C12.8884 23.9001 11.0549 24.6227 8.70374 24.6227C7.10751 24.6227 5.64071 24.2776 4.30333 23.5873C2.98753 22.8755 1.94135 21.8833 1.16481 20.6106C0.388271 19.3379 0 17.8711 0 16.2102C0 14.5493 0.388271 13.0825 1.16481 11.8098C1.94135 10.5371 2.98753 9.55567 4.30333 8.86541C5.64071 8.15358 7.10751 7.79767 8.70374 7.79767C11.2275 7.79767 13.1473 8.62814 14.4631 10.2891V8.05651H19.2518ZM9.70677 20.4812C11.0441 20.4812 12.1335 20.0929 12.9747 19.3164C13.8375 18.5183 14.269 17.4829 14.269 16.2102C14.269 14.9375 13.8375 13.9129 12.9747 13.1364C12.1335 12.3383 11.0441 11.9392 9.70677 11.9392C8.36939 11.9392 7.26929 12.3383 6.40647 13.1364C5.54364 13.9129 5.11223 14.9375 5.11223 16.2102C5.11223 17.4829 5.54364 18.5183 6.40647 19.3164C7.26929 20.0929 8.36939 20.4812 9.70677 20.4812Z" fill="#303D4A"/>
</svg>
